<svg width="100" height="50" viewBox="0 0 100 50" fill="none" xmlns="http://www.w3.org/2000/svg">
  <!-- Temporary Aris logo - replace with actual logo -->
  <g>
    <!-- Left rounded organic shape -->
    <path d="M5 45 C5 45 5 25 5 25 C5 15 15 5 25 5 C35 5 45 5 45 5 C50 5 55 10 55 15 C55 20 50 25 45 25 C35 25 25 25 25 25 C15 25 5 35 5 45 Z" fill="#EF4444"/>
    
    <!-- Right angular diamond shape -->
    <path d="M45 5 L75 5 C80 5 85 10 85 15 L85 35 C85 40 80 45 75 45 L65 45 L45 25 L45 5 Z" fill="#EF4444"/>
    
    <!-- Small accent dot -->
    <rect x="90" y="5" width="5" height="5" fill="#EF4444"/>
  </g>
</svg>
